<svg width="40" height="41" viewBox="0 0 40 41" fill="none" xmlns="http://www.w3.org/2000/svg">
<path d="M15.9267 11.1196L23.7994 20.9022L25.0087 19.8587L17.1359 10.0761L15.9267 11.1196Z" fill="white" fill-opacity="0.8"/>
<path d="M17.1377 10.0761L25.0104 19.8587C25.6827 20.6935 24.4735 21.737 23.8012 20.9022L15.9284 11.1196C15.2561 10.2848 16.4654 9.24132 17.1377 10.0761Z" fill="white" fill-opacity="0.8"/>
<path d="M17.1359 30.6848L25.0087 20.9022L23.7994 19.8587L15.9267 29.6413L17.1359 30.6848Z" fill="white" fill-opacity="0.8"/>
<path d="M15.9284 29.6413L23.8012 19.8587C24.4735 19.0239 25.6827 20.0674 25.0104 20.9022L17.1377 30.6848C16.4654 31.5196 15.2561 30.4761 15.9284 29.6413Z" fill="white" fill-opacity="0.8"/>
<path fill-rule="evenodd" clip-rule="evenodd" d="M19.6818 1.63044C9.68189 1.63044 1.57456 10.0256 1.57456 20.3805C1.57456 30.7354 9.68189 39.1305 19.6818 39.1305C29.6818 39.1305 37.7891 30.7354 37.7891 20.3805C37.7891 10.0256 29.6818 1.63044 19.6818 1.63044ZM19.6818 3.8147e-06C8.81117 3.8147e-06 1.14441e-05 9.12393 1.14441e-05 20.3805C1.14441e-05 31.637 8.81117 40.7609 19.6818 40.7609C30.5525 40.7609 39.3636 31.637 39.3636 20.3805C39.3636 9.12393 30.5525 3.8147e-06 19.6818 3.8147e-06Z" fill="white" fill-opacity="0.8"/>
</svg>
